/* XPM */
static char *result[] = {
/* columns rows colors chars-per-pixel */
"64 64 205 2 ",
"   c #010701",
".  c #030C03",
"X  c #080F07",
"o  c #070F08",
"O  c #080E09",
"+  c #061305",
"@  c #081507",
"#  c #071A05",
"$  c #091A06",
"%  c #071308",
"&  c #0A150A",
"*  c #0C1B0B",
"=  c #101E0F",
"-  c #0F1711",
";  c #0F1D10",
":  c #111712",
">  c #121C13",
",  c #161E18",
"<  c #191E1B",
"1  c #0B2306",
"2  c #0D2C06",
"3  c #0D230C",
"4  c #0F2A0C",
"5  c #102F07",
"6  c #10240E",
"7  c #112C0E",
"8  c #0F3107",
"9  c #0F300B",
"0  c #103307",
"q  c #143807",
"w  c #13330C",
"e  c #19340F",
"r  c #153B0A",
"t  c #183D0C",
"y  c #0F2510",
"u  c #132413",
"i  c #182717",
"p  c #142C13",
"a  c #182B16",
"s  c #172418",
"d  c #1A241B",
"f  c #172C18",
"g  c #1B2C1B",
"h  c #153314",
"j  c #193414",
"k  c #163A13",
"l  c #1B3B15",
"z  c #173319",
"x  c #1B341B",
"c  c #1C3C1A",
"v  c #203D16",
"b  c #21331F",
"n  c #213D19",
"m  c #1F2420",
"M  c #1F2B20",
"N  c #1E3220",
"B  c #1F3C20",
"V  c #232624",
"C  c #232C24",
"Z  c #272B28",
"A  c #2A2E2A",
"S  c #233423",
"D  c #233C24",
"F  c #283C27",
"G  c #273229",
"H  c #2B332B",
"J  c #273B28",
"K  c #2B3C2C",
"L  c #2F3330",
"P  c #2F3B30",
"I  c #313632",
"U  c #323B33",
"Y  c #17410A",
"T  c #1A440C",
"R  c #1D4B0E",
"E  c #1E530E",
"W  c #174210",
"Q  c #1C4215",
"!  c #174910",
"~  c #1D4C14",
"^  c #1D431B",
"/  c #1E4A1B",
"(  c #1E511C",
")  c #204E0F",
"_  c #20540F",
"`  c #215C0F",
"'  c #224316",
"]  c #214C14",
"[  c #22441B",
"{  c #28471D",
"}  c #234B1C",
"|  c #2A4C1C",
" . c #225413",
".. c #245B13",
"X. c #24531D",
"o. c #2A531A",
"O. c #245B1D",
"+. c #2D5C1D",
"@. c #266313",
"#. c #296415",
"$. c #266B13",
"%. c #2A6B15",
"&. c #24621F",
"*. c #2B6618",
"=. c #2B6D18",
"-. c #306E1A",
";. c #2B7215",
":. c #2B7315",
">. c #307817",
",. c #32761B",
"<. c #337B1A",
"1. c #1F4321",
"2. c #1F4A22",
"3. c #1F5420",
"4. c #224423",
"5. c #284427",
"6. c #234C23",
"7. c #284D24",
"8. c #27452A",
"9. c #2C432C",
"0. c #264A29",
"q. c #2B4C2C",
"w. c #31462F",
"e. c #304D2F",
"r. c #255324",
"t. c #285424",
"y. c #255B24",
"u. c #2A5C24",
"i. c #275428",
"p. c #2A542B",
"a. c #265F28",
"s. c #2B5C2B",
"d. c #305622",
"f. c #2F4230",
"g. c #2E4C31",
"h. c #324533",
"j. c #344B34",
"k. c #364C38",
"l. c #384B3A",
"z. c #2D5431",
"x. c #2E5C30",
"c. c #335335",
"v. c #385735",
"b. c #325C34",
"n. c #375538",
"m. c #3A533B",
"M. c #375838",
"N. c #3A5C3C",
"B. c #296325",
"V. c #296D25",
"C. c #2C642C",
"Z. c #2D6C2B",
"A. c #30662F",
"S. c #306A2F",
"D. c #2E7425",
"F. c #2C7F27",
"G. c #2E732D",
"H. c #2E7D2B",
"J. c #30742F",
"K. c #317B2F",
"L. c #2F6331",
"P. c #2F6F31",
"I. c #316432",
"U. c #326A32",
"Y. c #376639",
"T. c #366D39",
"R. c #386D3C",
"E. c #2F7531",
"W. c #347334",
"Q. c #347C34",
"!. c #387B37",
"~. c #377238",
"^. c #3B763C",
"/. c #367A39",
"(. c #3A7C3B",
"). c #3E5340",
"_. c #3E6040",
"`. c #3F7B41",
"'. c #416543",
"]. c #2F852C",
"[. c #358235",
"{. c #368B35",
"}. c #3B843C",
"|. c #3C8C3C",
" X c #369435",
".X c #389037",
"XX c #369B35",
"oX c #389B37",
"OX c #3B953C",
"+X c #3A9C3B",
"@X c #3CA33C",
"#X c #3CA93D",
"$X c #3CB03A",
"%X c #3EB93E",
"&X c #3E8542",
"*X c #3FAB40",
"=X c #418343",
"-X c #428F44",
";X c #448C4B",
":X c #429245",
">X c #429D46",
",X c #469548",
"<X c #479F4A",
"1X c #46A14B",
"2X c #40B341",
/* pixels */
"& u u > b g x g u = i x 9.8.p.* & @ & * & & = * i g d u & O O O & c Y.z.q.0.2.g.B y ^ 1.0.4 4 p p y . O S J s s > u u 6 * > - * ",
"u > i i f i x g i = = = x D q.; * = * * , g g s i i , u > O O * % 1.b.z.z.g.8.1.z l ^ ^ k $ # p B S * M 9.g.N s s , u u u M u ; ",
"p i b g g b S n b u * = s x q.u @ & = b b S i u > a = & & - : ; & z z.z.M.z.g.J p c l ' r q 2 2 x J u S m.).S M s u g s g g y s ",
"z u g i i g z x j i u 6 y p q.; @ & p i = & * * = * & . . . > * * x 8.c.M.c.g.8.j l q 0 q w w q 7 x z f 8.8.s g s a p S S N s > ",
"c @ u * * u g 3 3 u u * O u p.f . * 6 & &     X + @ $ - & X & f & % y B 8.g.B J t q 5 0 Y r q r r 7 f & u N u , = a x S J S g g ",
"/ u * & & u u f p h ^ [ 1.s.R.x   X X @ & . .     . @ = & & & B N f u & % z B 2.) t q 0 Y T e r w q 7 % . % - s i b b F S C S C ",
"6.D f f c 4.p.s.4.r.| l v t.R.q.& X X & = - = s > = = = - * S B x 1.4.x p $ 4 r q T q t T t e t q q 4 * % % & u i g S F w.S S g ",
"q.4.z c s.W.B.1.^ o.7.n ' [ p.z.u * = = = - x g i = & & X f I.[ k ^ c ^ / ! W r R R R Y t t q q T T r 3 . ; & & g S g J K D J g ",
"'.m.v.4.c r.^ j l l j { ' ' x.x.p * 6 u , = i 6 > u s * & D [ ^ k W p T E E ..E Y Y E Y q Y T t T r r 7 @ * u = u g x i i u b x ",
"w.J c.c.4.r.^ | j ' e v { ' t.b.j 6 6 > = = i i u S s & $ D l / ^ 7 0 Y R E @.E Y T R Y 0 5 t _ @.R R 5 6 & > , u S i p i u u g ",
"S g x z c ^ w ' e 7 v v ] ' ' } 4.p 6 * > a i u g S s > p x k y.p.0.h 2 2 q Y T Y R _ R q t t R _ _ Y 0 p 6 > i i f i b x u > > ",
"b u h z p p w v ' v l l v e e l 6.j 6 6 i x a a > g s ; N x T D.6.4.c p 1 2 8 R R R E Y 0 0 0 R R _ Y r p u g S i g x b b a u & ",
"c c r.h p p w v ' { ' ' e l e 7 l ^ * * = 6 b b g i u > D x h ( j p j 4.4.p 3 r R R R r 8 8 0 T ) ) T t c u f f i z b x c j f > ",
"c k ^ h c x j [ | | | ' ' ' v e l t.= * @ * i i = u u u 4.j k c p x p c 4.q.c 2 2 q T Y r r q R .._ t 7 4.p * u * > p a 6 u u 6 ",
"2.2.k 7 6.c l a v { ' ' v v v v v ' j X 6 6 & = * > d = c 6 u g S S j p x 4.4.z 8 0 8 0 q r q r R _ 5 D p.c * * & * u u 6 p h c ",
"c c 3 z p.n 7 n v v v v v v e v j v 6.u $ = * & & * = u p 1 a C J H x c q.q.c 6.c q r 0 r T Y Y T w n x.p.6.D u a a c p.p.[ 7.} ",
"3 4 4 6.x.1.1 l { | ' ' ' n e e e v } 7.* + $ & ; ; ; * $ 3 x G J K f.l.).K M p ^ ^ q 8 0 r R R Y 6.L.p.p.8.B h 6.L.W.a.4.[ u.{ ",
"+ & h s.6.[ p ] d.| { { v b e a a v ' 7.x + . . . + & * z s C S J f.f.).G s d d f 1.9 2 1 2 r 7 } W.Y.n.c._.k.p.c ^ y.c l l l l ",
"c r.a.6.X.X.p 7 l v ' { v e i e e e v p.6.1.h p 7 & $ x z.J C S N M N h.N L G G N 4.6.p # + $ [ I.Y.).g.P f.K M.c.6.6.^ { e ' e ",
"G.}.}.W.Z.Z.c p e ' v ' v e a 7 $ a 7.s.a.B.r.r.6.1.l ^ x.b.x G N M d J S P A u > p / c F n x.W.b.g.k.P K S M B x 1.k l ' e 7 l ",
"XX.X:X|.Z.G.s.4.7 o.| ' v 7 6 6 c i.r.r.X./ z k j 7 3 7 t ^ b J M > s f > M M & % * & u 0.I.}.(.k.h.H S F x y h p x p e v ' v l ",
"oX[..XOX{.G.C.s.l l l e 6 3 p y.B./ l c k l j p j p 4 7 h 6 a D M s s * > V g * % 3 * 3 8.C.`.N.g.l.4.z x x l ( 7 a 7 e ' ' v ' ",
"OX+XoX@X#XZ.C.L.p.7 6 7 } Z.V.} ^ W j l l j l p p j 7 p h 7 h ^ S M B s s g s g * 3 u p 4.I._.l.h.l.q.[ ^ c l / p ^ j l ' | | | ",
"OX@X@X$X#XH.V.L.W.t.h p.W.O.l l z c j j } v l c j l j c j h h j x d S g g u x x u + u 6.I._.).l.h.m.e.D c ^ 2.h h 6.l e a v | | ",
"+X2X2X%X@X].V.C.T./.C.u.^ h l l Q [ [ ^ } [ c { c c x x z p 6 u c u J g g x / Q u & p y.b.k.m.h.f.4.B z z c c 4 B i.h j [ v l n ",
"+XOX@X{.E.E.B.a.!.U.X.W w l Q Q l [ ^ [ } [ n 4.n c x j c j w j j f 5.x x c p p u f 1.h 4.f.n.c.4.c p y 6 4 4 4 p.s.z 3 n { { n ",
"[.Q.}.!.[.{.E.i.C.^ w k k Q Q [ h l l l Q [ n n x x x n c j j l 7 j 4.l b f u & & s.W.7.p c f h 3 4 9 1 # + & c a.6.c 2 o.d.| ' ",
"K.Q.W.K.{.{.V.y.4.z 9 w W ~ [ [ [ [ l [ c h j a 7 j c j j j k p 4 l l a S i * * t.(.W.U.6.p 4 4 $ $ # + + z t.u.6.y.^ p e v ' { ",
"Z.S.Z.]. X{.Z.2.c k k k W } Q h [ 6.6.4.c { 7.4.j a j c c c h 7 4 h 1 * 3 6 f t.C.B.u.C.P.6.h h h z z W } J.!.[.A.Z.s.z 6 e ' ' ",
"^ u.C.P.E.Z.[.i.h 4 W w k j [ c h [ { l p c 6.6.n 7 p p 7 l j $ h 7 & + + z I.B. .'  . .O.B.L.~.E.y.y.V.K.XX|.:X}.Z.J.6.c e o.' ",
"$ 7 2.a.6.G.K.s.c 3 W k j c [ } [ u.[ [ } c [ n c p 6 4 w w p 7 r.2.p h i.Z.O. .*. . .] ..#.B.W.y.y.B.G..XoX[.|..XK.J.s.t.a ] v ",
"z 1 $ 7 h / C./.1.p / h W } Q l } t./ X.t.7.n [ c n p 7 3 3 7 6.&X(.E.s.a.X.....,.%.%.%.#.....C./ c s.C.[.+XOXoX#XoXZ.C.I.[ 4 4 ",
"/.P.3.c y $ 4 / ^ k k h k ^ } c p j Q ^ 7.[ c c ^ n ^ Q z $ z /.&X/.B.6.} o...$.;.>.%.%.%... .A.A.l p.U.E.&X#X#X$X@XD.B.T.U.^ 7 ",
"P.P.T.L.L.2.3 y C.r.h 4 w k l W Q ^ } X./ j 7 ^ 6.^ r.} l h G.-XT.P.r.l ....E ..%.%.%.>.<.-.o.I.W.Q r.S.L.*X*X*X%XXXF.V.L.~./.p.",
"z z h f ^ k 7 3.}.&X6.9 l Q / Q } X.[ ~ l l Q l Q [ / [ c r.}.(.s.s.l l  .#.=.,.<.>.$.;.%...) o.L.^ Q B.K.*X@X*X].H.E.a.C./.L.O.",
"p h h 7 z * * h l /.W.p r W W / X.[ } X.X.t.X.k w ~ / l ^ Q.&X~./.X.W j X.]  .*.$.` $.E ` ` ) q 6.^ h a.E.[.Q.[.[.[.{.C.a.C.^ 9 ",
"x x B y y y y 7 Q i.L.z w / ! h w c ^ Q / ( X.^ z k h ^ W.:X^.W.B.k ~ W o.o...$.$.$.;.@._ ..] t } s.p Q G.[.[.E.K.{.{.a.t.1.p 9 ",
"z h x u f y u p Q z 2.L.z 7 W k 2 1 1 4 W / ^ W 4 3 k [.>X,X^.C.Q  . .~ } +.%.;.>.;.;.;.@.@... .+.I.r.h ^ Z.C.E.[. X{.B.6.x k r ",
"x f f f h y 7 p 7 c k s.p.7 1 h k h 1 4 4 4 7 k 3.E.&X*X1X<X=X!.r.T ~ #.~ [ @.$.;.$.;.` $.#...R ..u.S.p 4 2.B.Z.G.G.E.E.6.p 9 W ",
"4.c c c l c y y 4 ! k 3.`.P.2.7 4 1 4 1 % * h 2.a./.&X`.;X:XI.p.I.a.Q @.@.~ ..E R @.@.@.@.#.R  .] X.A.t.# 3 z B.y.y.H./.i.p 4 ^ ",
"l / j f u x h 4 4 4 k / /.:X(.B.2.h p 7 7 z 1.z c 6.i.x.T.p.F q.q.U.s.o.#. ...%.$.;.$.*. . ..._ w ^ /.&Xa.y $ * h k 3.E.W.c 9 / ",
"p ^ ^ c p 3 c z k k k / B.u.r.C./.C.1.z B 8.M N J N f x q.8.l.U.D 4.7.6.^  . .*.;.:.:.*.@...E r W /.}.&X;XW.a.^ p * 3 k 3.1.k k ",
"h p p p 7 y k z Q ( [ x.6.7 1 ~ C.C.B M M S M f g g f g f.P k.z.M c.P J D ^ T ..;.$.].;.,. .t 4 s.W.L.L.W.W.W.W.L.a.z $ h C.c k ",
"/ x u z z k k / &./ p.6.3 @ $ w 3.p.f.J M M d f g g u * f H j.g.f.k.L Z 5.0.c ~ $.@.@.@.%. .W P.Z.k k k c l l z c / c 7 B.&X~.c ",
"c } ^ 6.z 4 3 4 ^ U.6.$ # # # 1 3.a.8.G s M s s g s g u g Z w.P w.f.A A K S 4.} %.#...$...k C.y.k w ^ ^ c p p p f 7 # y k 3.&XL.",
"h ^ t.1.4 p 7 x s.c * # + # # 1 k B M s - - > , d M V S 9.C C S v.h.L I G S F [ T ) R Y W C.r.$ p x z c ^ h c x y y y y 7 ^ L.L.",
"1 p z 7 4 z p.L.p + . . + . % # 3 z > m s - > > u d < K F Z 5.C c.K L U H C b D t.w 4 c p.^ k h f x B ^ 2.x z z s p y u h 2.z 2.",
"* 3 7 3 $ * x.1.+ . + # + . . # 4 B - s , - , , d , < F C C w.V P Z H I Z V C b W.Z.Z.B.h 4 h p z f f c B z u f f p y h p 7 k c ",
"$ 3 3 z [ c u $ + + . + . + . # 4 2.y m m > m > : , m N H U J K h.Z L L Z C G F /.[.K.^ 4 ~ ~ c c c c [ c 6.z c x c k 3 4 h ! h ",
"* $ y r.4.3 + . + # . + . . . + h 1.s m m s : : > , m G H U K w.w.V Z V A H L D G.Z.( w h k c 6.r.^ z 1.} ^ n z p j z p y 3 w W ",
"& z 6.p.$ # . . . + . .   . . + l ^ f d s m , , : m G J H I P c.9.V V Z A I f.0.Z.3.w k h 3 z W x h u p x j ^ c h p u c h k h h ",
"2.`.I.y # + . + . . . . . . . 1 2.B g m , m s , m m L H A H A g.K A L L L h.N.x.c 9 k l 7 $ p z p p u 4 7 h p h p u 4 ^ h / / / ",
"&X&Xq.$ . . . .   . . . .   . 4 2.p ; - , < d : > M A H M Z P 9.A Z Z A Z k.x./ h k k 9 p p z z f h x k ^ Q f u h z z c / &./ a.",
"=X~.P.s.% . . . . .   . . . # 1.z x B z & * s : < M M G Z Z P P V V Z V Z g.p.z 7 l l 7 7 f f p p u h c c c 6.c } h 4 4 h ( L.4.",
"j 6.P.U.z + . . . .   . . + p 1.4 $ f c * u f : < m M Z m m P G m Z Z V M B N f h 7 k k h 7 7 p 4 . * * 7 j 6.t.c 4 7 y c C.c & ",
"+ & p t.c & + . .   .   . & h y + & * > * x p : m M M N M M h.m m V V < f p 3 k l p y 7 4 y 7 3 u 3 * * 1 3 h l y p c s.s.u . + ",
"& + & p y + .   . .   . . 3 * & & @ . - K D f > M g d M d G f.< m < d d 4.y 3 p 4 * + $ * 3 * y > u y p y y y 7 1 $ p I.x + + . ",
"* & & * * 3 +   . . . . + u & + @ * g 8.c.8.c c p d d d < J J < < < d B c ; y 7 4 1 # % % % 3 y * ; * h p $ * 3 k B c u + + + . ",
"* & % % & p p .       . * * + % f h h D 0.z f 7 p 4.g s < 8.M s : < , x 7 u ; p 7 y h 7 * $ 3 3 + + * p p $ $ p p.B 4 + + + + . ",
"* * * & % * p &   . . & & + & p a 6 7 a y * a j 4 4.x , N f.m : < < j p * * * ; y # y * y 3 * y y y y ; * * h 0.6.$ . . . . + . ",
"& O O & @ X * u .   . + & h 0.7 * & 6 6 6 6 i i u i g , N f : , - y 2.2.B y & * * $ * 3 4 * ; p p x c f $ 6.`.x.& # . + . . . . ",
". O . . = & & * & . & u g 0.p.; @ @ $ = = 6 6 = p x g g N s - ; & z z.x.i.1.z * * 3 y 3 y 4 u p x z x p B.=X`.B + + . . + . . . ",
"& > > > S g f g u O u g 9.8.p.* & & @ @ & * = * a g d u & O & & % B b.z.z.8.0.B * $ 4 $ & + & 4 u * * p.(.;XW.C.^ . . . . . . . ",
"6 > i i u i x x f - > ; x B q.; & = = - u d i d a i > u > o O & % 1.Y.z.q.z.8.1.f 3 + . . . & .   # h p p 4.B.W.I.& .     . .   "
};
