/* XPM */
static char *result[] = {
/* columns rows colors chars-per-pixel */
"64 64 256 2 ",
"   c black",
".  c #010101",
"X  c #020202",
"o  c gray1",
"O  c #040404",
"+  c gray2",
"@  c #060606",
"#  c #070707",
"$  c gray3",
"%  c #090909",
"&  c gray4",
"*  c #0B0B0B",
"=  c #0C0C0C",
"-  c gray5",
";  c #0E0E0E",
":  c gray6",
">  c #101010",
",  c #111111",
"<  c gray7",
"1  c #131313",
"2  c gray8",
"3  c #151515",
"4  c #161616",
"5  c gray9",
"6  c #181818",
"7  c #191919",
"8  c gray10",
"9  c #1B1B1B",
"0  c gray11",
"q  c #1D1D1D",
"w  c #1E1E1E",
"e  c gray12",
"r  c #202020",
"t  c gray13",
"y  c #222222",
"u  c #232323",
"i  c gray14",
"p  c #252525",
"a  c gray15",
"s  c #272727",
"d  c #282828",
"f  c gray16",
"g  c #2A2A2A",
"h  c gray17",
"j  c #2C2C2C",
"k  c #2D2D2D",
"l  c gray18",
"z  c #2F2F2F",
"x  c gray19",
"c  c #313131",
"v  c #323232",
"b  c gray20",
"n  c #343434",
"m  c #353535",
"M  c gray21",
"N  c #373737",
"B  c gray22",
"V  c #393939",
"C  c #3A3A3A",
"Z  c gray23",
"A  c #3C3C3C",
"S  c gray24",
"D  c #3E3E3E",
"F  c #3F3F3F",
"G  c gray25",
"H  c #414141",
"J  c gray26",
"K  c #434343",
"L  c #444444",
"P  c gray27",
"I  c #464646",
"U  c gray28",
"Y  c #484848",
"T  c #494949",
"R  c gray29",
"E  c #4B4B4B",
"W  c #4C4C4C",
"Q  c gray30",
"!  c #4E4E4E",
"~  c gray31",
"^  c #505050",
"/  c #515151",
"(  c gray32",
")  c #535353",
"_  c gray33",
"`  c #555555",
"'  c #565656",
"]  c gray34",
"[  c #585858",
"{  c gray35",
"}  c #5A5A5A",
"|  c #5B5B5B",
" . c gray36",
".. c #5D5D5D",
"X. c gray37",
"o. c #5F5F5F",
"O. c #606060",
"+. c gray38",
"@. c #626262",
"#. c gray39",
"$. c #646464",
"%. c #656565",
"&. c gray40",
"*. c #676767",
"=. c #686868",
"-. c DimGray",
";. c #6A6A6A",
":. c gray42",
">. c #6C6C6C",
",. c #6D6D6D",
"<. c gray43",
"1. c #6F6F6F",
"2. c gray44",
"3. c #717171",
"4. c #727272",
"5. c gray45",
"6. c #747474",
"7. c gray46",
"8. c #767676",
"9. c #777777",
"0. c gray47",
"q. c #797979",
"w. c gray48",
"e. c #7B7B7B",
"r. c #7C7C7C",
"t. c gray49",
"y. c #7E7E7E",
"u. c gray50",
"i. c #808080",
"p. c #818181",
"a. c gray51",
"s. c #838383",
"d. c #848484",
"f. c gray52",
"g. c #868686",
"h. c gray53",
"j. c #888888",
"k. c #898989",
"l. c gray54",
"z. c #8B8B8B",
"x. c gray55",
"c. c #8D8D8D",
"v. c #8E8E8E",
"b. c gray56",
"n. c #909090",
"m. c gray57",
"M. c #929292",
"N. c #939393",
"B. c gray58",
"V. c #959595",
"C. c gray59",
"Z. c #979797",
"A. c #989898",
"S. c gray60",
"D. c #9A9A9A",
"F. c #9B9B9B",
"G. c gray61",
"H. c #9D9D9D",
"J. c gray62",
"K. c #9F9F9F",
"L. c #A0A0A0",
"P. c gray63",
"I. c #A2A2A2",
"U. c gray64",
"Y. c #A4A4A4",
"T. c #A5A5A5",
"R. c gray65",
"E. c #A7A7A7",
"W. c gray66",
"Q. c #A9A9A9",
"!. c #AAAAAA",
"~. c gray67",
"^. c #ACACAC",
"/. c gray68",
"(. c #AEAEAE",
"). c #AFAFAF",
"_. c gray69",
"`. c #B1B1B1",
"'. c #B2B2B2",
"]. c gray70",
"[. c #B4B4B4",
"{. c gray71",
"}. c #B6B6B6",
"|. c #B7B7B7",
" X c gray72",
".X c #B9B9B9",
"XX c gray73",
"oX c #BBBBBB",
"OX c #BCBCBC",
"+X c gray74",
"@X c gray",
"#X c gray75",
"$X c #C0C0C0",
"%X c #C1C1C1",
"&X c gray76",
"*X c #C3C3C3",
"=X c gray77",
"-X c #C5C5C5",
";X c #C6C6C6",
":X c gray78",
">X c #C8C8C8",
",X c gray79",
"<X c #CACACA",
"1X c #CBCBCB",
"2X c gray80",
"3X c #CDCDCD",
"4X c #CECECE",
"5X c gray81",
"6X c #D0D0D0",
"7X c gray82",
"8X c #D2D2D2",
"9X c LightGray",
"0X c gray83",
"qX c #D5D5D5",
"wX c gray84",
"eX c #D7D7D7",
"rX c #D8D8D8",
"tX c gray85",
"yX c #DADADA",
"uX c gray86",
"iX c gainsboro",
"pX c #DDDDDD",
"aX c gray87",
"sX c #DFDFDF",
"dX c gray88",
"fX c #E1E1E1",
"gX c #E2E2E2",
"hX c gray89",
"jX c #E4E4E4",
"kX c gray90",
"lX c #E6E6E6",
"zX c #E7E7E7",
"xX c gray91",
"cX c #E9E9E9",
"vX c #EAEAEA",
"bX c gray92",
"nX c #ECECEC",
"mX c gray93",
"MX c #EEEEEE",
"NX c #EFEFEF",
"BX c gray94",
"VX c #F1F1F1",
"CX c gray95",
"ZX c #F3F3F3",
"AX c #F4F4F4",
"SX c gray96",
"DX c #F6F6F6",
"FX c gray97",
"GX c #F8F8F8",
"HX c #F9F9F9",
"JX c gray98",
"KX c #FBFBFB",
"LX c gray99",
"PX c #FDFDFD",
"IX c #FEFEFE",
"UX c white",
/* pixels */
"L ( [ ;.a.0.$.*.$.%.*.) ..6.9.! ` *.i.y.>.%. .,.M.>.` / @.` X.7.6.0.q.q.C.K.6.' | ] | :.y.F.|.L.%.-.2.n.z.%.9.a.B.,.` X.[ Q ! 4.",
"q & @ 1 r < - < 4 2 : 6 r V m 2 < ; : y C T S $.U y 4 X @ 2 6 q e r 8 7 i 3 & @ & r G B : 3 r 2 + * > 9 4 , , 2 , O X @ o O = ` ",
"d # o . o o $ > , : & < w y 1 * $ % * 9 a K B V e ; * X O : < 1 5 3 * + X     . . < M d . X   . o X . # % + 8 i : .     X + < ..",
"i @   X @ X o = 4 , - 9 t t # o + = , 4 i j h h y ; o + # - : 3 8 6 > @ X         * s q . X . + $ O $ * @ % y r 6 * %   X O = +.",
"9 $ . o o X @ 1 9 4 < 2 - & X o @ & , 1 3 4 0 p 6 & o $ = = : 7 w 8 3 $ X . .     & u t .   X & , = * ; % 5 r t 2 4 : o o # & } ",
"u % + X + O * u s 0 2 % + # @ @ $ O & , 3 4 q 7 % @ % ; 1 1 1 t y t 4 + X . o o X $ p 6 X X # > > 3 5 0 7 p j a , > : % % - & W ",
"i * + - = $ , y a w 9 5 * X o $ # O - 5 e s 2 # % - > 1 2 7 0 q t j y = X . * < & 8 n w : y i 7 3 r p t i k n v 1 % = ; ; 5 > H ",
"N 4 3 f s 0 r x f d s i f 8 o + = : q p x ..9 * 0 a w 3 5 y i i p f y 3 % = a l 7 d C f 9 k d y 2 e j k d k c b s , 7 k g p 5 G ",
"Z , i f M A v U m p g z m g 1 p y 3 b C A r.#.i d l u 6 q t i l g l i 4 3 0 p n j j C b 7 v J n u 0 7 d g g h l s 6 0 l d r 3 n ",
"C a a q u k c J I f u h M m k V z h U P G %.h.R s g t 5 7 9 t z n A k 8 q e w u g f F ! e @ 7 ~ C z 9 5 t a B V p q 6 r e 3 > J ",
"D y w q w w u j N M h x P G z l m J Q E S #.e.l. .C r 3 7 7 t k c B k u y t e 0 t f U O.< $ u N h d 5 > & p I K f g r 1 : 5 2 ] ",
"N y 3 0 r 7 9 i c x n Z Y P k x B F I R A 5.l.r.8.} 6 , 3 6 w s c n z g s p p u p b J _ < , & w k 0 > 8 5 8 S F v j d > 4 t q @.",
") r 1 8 i 6 8 p z j u D ! ^ n b M D I W J $.8.M.z.I 4 1 > 8 r s l n v z h l n m m F Q J : = > B ~ ) p c f 0 P L V p q 2 y s l -.",
"~ 8 q e r y g x z p 1 l E Q G F B v x Y P [ X.9.) h d 6 : w p p k m M M v m S A C ! ` W 7 4 < k B ! V M A l b c d q q 0 i z B | ",
"^ v n E +.Q J P E H C I O.a.1.R I A Z ! *.-.$.i.9.R K a j J H Q ` } | [ +.+.} ) _ *.=.2./  .6.-.~ >.h.p.,.| Q L W P Y ) ^ ..) $.",
"| #.:.=.2.1.<.6.<.-.| ' 3.=.$.^ R ) O.#.! ' } +.4.| ) ` %.$.=.6.4.1.-.=.6.a.w.7.8.6.O.f.l.b.B.m.p.l.x.n.n.g.j.t.u.r.9.a.g.s.w.;.",
"| <.e.*.6.t.l.3.6.,.T *.<.r.i.` ! ^ X.~ ' ! U ' } T F n S E _ ( @.#.2.f.i.<.#.3.<.8.6.} ' #.-.O.` O.y.x.>.1.h.1.;.0.7.9.w.d.e.6.",
"H J C N } ~ &.;.@.E L N A F l j M ] >./ Z Z C S D S V N P E ' ..#.E V C ^ @._ ^ Q L R | =.O.[ +.=.-.;.1.5.1.$.~ Q K A Q :.7.^ K ",
"n f y p F v ! { W N V V k w 8 i V D l m s h x j t 8 > a G z v ` ] I m s j S M c B Y / ~ E K A D L E K U ^ U Z c l f p s b h i h ",
"t u f i d v H Y P b b j h a 0 f d q i g z 9 t r 8 > + , t 7 d / ` F V m b N j c I Z c p c J D b z D Z n V x x j q 7 6 7 u g C D ",
"i s g a h V N N b d j d t w 0 q y 3 9 b q & > < w > * 8 q 2 f ! ~ S R P f q 0 3 3 w a s u b B J N p a j v j t a 8 9 2 , 6 i n m ",
"u v k t y n z u r u z t 3 7 9 r 0 4 9 2 & @ = 2 2 = 2 t 4 0 z T ' W M t 2 x a , - g b n d d j c u 5 0 j l s 4 1 6 e 3 , 2 w g d ",
"y z x 0 9 2 1 8 1 t n 9 - 4 1 ; @ ; 2 > - = 7 w 5 % , q u a z C Q a , < 4 f p s x C A v u r y t e 2 1 t h a 2 ; 6 0 6 4 6 0 t u ",
"j k f 7 ; # 9 i 3 r b 0 $ * - = - 6 t e < 1 9 q 8 $ 4 x b l n Z Y q 7 9 , i h x b G E I c h g s f 0 7 0 l y t 1 q t r w t d v z ",
"x z h 7 1 5 y j 9 u m 4 % : > < 6 u s p 1 > 5 5 2 # 1 c B B Z K / e 7 7 , 0 a x n J U T N j u w s e w h N i z 5 q a a i s x b m ",
"m n z > < 9 y e a a b 4 , 5 4 6 q w e 0 7 1 q 2 & $ : b C M C P / f 8 0 0 e w s v F T P B g r 8 q 7 q A T D A 4 w a d a d x n Z ",
"M v h - , 4 5 4 d k C b g p y d h t y e u i i 6 : > 3 h b m C F ) f y i g k y u b A T J V j y r 0 4 , z O.{ G 9 u s s p d b N A ",
"n n x : * 1 4 6 w l J p r 8 7 g h s d j j a 9 4 < 5 6 6 y v N F E i u a z l w a Z A G D V z t t q 8 < s %.] N i f g s i g m B N ",
"C B N i 5 a x h p b L a g k l a t s k x j p g d 9 6 9 0 t f c P R h r a n f 8 p n k k N H V u a y e 9 c ;.` A i d g u u j N Z C ",
"L J A z f M Y V j C ( h m K F n B b v b v c B N h p i e e a x ( ' c k k k d e d z c l C I B k B l j c P o.^ M a f s a h n V S P ",
") ` ! A C F L P Y o.:.o._ P L Y ( W H ! ^ T E R R K A K F ^ =.r.8.-.( / ^ P x M H J S G U I Q ^ Q F C G W ^ n k z h M N n J } ..",
">.+.o.X.o...| o.%.o.( ] / R Y W R ~ ] { ) ~ W E ~ ^ P ~ =.=.7.O.#.=.' ) ! R H D L ! ( T L T ! E P Z V D G H b x n M b b x ^ @.{ ",
">.#.%.-.-.&.-.w.i.i.' [ #.} / | o.~  .7.| ] @.=.r.@.` { @.o.-.3.1.&.{ #.3.6.} I | 7.-.8.g.).H.>.&.3.u.~ G R ` U ^ ' ~ +.o.%.6.r.",
") A a g m l s k J f u x n N K O.;.J m ( _ D h j c z U ' H B D T ! U G k c u r 8 w [ } { 2.| j q f ; e 5 0 e m a * @ $ : v Q O.g.",
"_ z 4 q d u , 1 w , 3 d n B E c S V d Z T H S N 5 e =.] U N x v m c g p 8 o & 2 > S Y S V v 3 p b 4 < 9 w 4 5 3 $ . O O > p Z :.",
"Q w 1 , 9 6 < 1 3 6 6 r Z S D R h y f Y D L b v a C / } ) V u h z g z v 0 - % * : g m d g z C z a 6 1 e ; $ - = $ . X @ % : F 6.",
"C 1 - = - - ; - < k v 9 s S l a p 6 y J C N a 6 9 z F Y ~ s w p s u k a 2 = * & * c C N S ^ j & X O O % o % * % % O $ * % = K $.",
"C 9 # $ - : ; % < z V y 1 r e y t w a I A N y > < w j B I p 7 0 t g d < * > & # & l P ! h e @ X . . O O o @ * & # O = & 3 w ! ` ",
"c e , > 1 3 0 r w a g s r q 0 t r 0 r G G C 8 @ % 7 x D / z 4 7 p B k : # @ @ # & A E v 2 = o O . . O o O : 8 > $ @ O > k M E ! ",
"n t 9 w 4 6 q k h k x x a 0 7 7 6 9 l A m b i : : i N J ` x 9 u l b i - O O < s f _ [ ) < # > & o O = O + 5 7 6 s e 7 v c c F L ",
"C t 6 3 < 1 5 y e p S A j 4 : < 7 t D N k x j 8 < r h v Y s w f g C h * % : 0 d f E ;./ @ X # ; 6 = * * $ - 4 0 r e k K F v V / ",
"R t 1 : - - = 2 9 t U Y f : ; 4 r r n D j l k t w i t j N f g g l S l 0 8 6 3 w i B [ N # & $ 5 d 0 9 6 : ; s g f f M I Y C K ! ",
"} w 2 , : & = 2 e k W C u ; 1 3 3 5 y A n b g a 7 5 < 6 i s z g v M k p 7 7 0 y g N / i $ 1 , u h 6 9 7 3 4 v n z l n F G V U ` ",
"+.g > * $ # > 4 9 f V e 1 % 2 3 1 > t Z H D 7 e > > % * w 8 5 9 u l a p b A N j b K ;.b ; & 6 M n q p u q s M V M c n G P Y  . .",
"-.s - % % $ r d 4 3 7 i 3 * 2 2 < 3 9 L L G 8 5 = ; % & i 6 , p C H M k H D M v A ) :.} U B z Z J V n M n C A F A B H E W ) &.O.",
"=.t u y 6 1 g h w q 8 8 3 > t 8 < 9 p G J D 5 - % 3 8 > d 0 r m J D C v V D m M G @.*.' / ..Z / 7.O.R L Q W ` | K Z N F M F >.o.",
">.U C Q L h a b K T E U x J I J G P _ ..=.8.` L V A T L Y v b P U P Y R ~ / R Y ~ 5.3...R E K W =.=.1.;.%.@.%.*.@.} E I I H O.&.",
"[ ( R K A N A U | >.$.` Q #...` [ &.&.2.{ 9.9.3.>.o._ _ ` ) ] | ) E ! Q ' ' } | ..X.( ' K Z H L ! / [  .&.$.X./ ' Y S A D C W ~ ",
"| Q W ! G x k j Z #.E | R ..) I H ^ X.-.4.;.X.@.+.3.#.| [ ^ ) / *.-.e.p.9.2.4.y.e.t.g.g.b.5.` ^ ` ~ &.c.4.#.q.} X.#.S ! X.Q L ` ",
"k n p 5 : < f g g _ R a , y g p k C K [ o.' $.X.S c d u a k L } ..g r S m z n K K M j x i 3 $ - 1 9 w / } { ' M > w 3 q 8 d i d ",
"p e 4 y a e e k s Z I p * > y i x D ..p.y.| { k % ; 8 r 8 u k / ' i $ ; : q t y i q y q % 9 a < $ 9 3 r C F V K M a 1 > * 2 7 0 ",
"j f p i w 0 3 r b G A p 0 y i i j C X.u.t.{ h , $ > 3 q w r c I _ y : + @ 7 9 r k s f 7 t c c t $ > q 0 v R ! A c a 9 : : 5 w r ",
"j j r 5 6 l N a c c B i 7 i i u d g S =.-.X.G 7 ; < d n p w p G I 8 w # + - 4 3 u y t < 2 e y , @ + & 4 u W d U S t , & 9 3 q i ",
"k z g 2 9 d e - 3 D P i 2 t i f d p x Y ` ` R d 7 e l d < 7 e m j ; * - > i p ; * u u i : . X o $ % 3 s u J * 1 = $ & & 0 1 6 u ",
"M D Z d w 7 4 : k +.( h < r g z j i y D Y J H t 8 i l 7 0 y j G j q u 8 1 3 , > w V H P e $ e c v 3 0 M d P 3 q j : , 9 e r l c ",
"Y T C j x b b b Z 7.{ B 3 w h x f u d V F A D r q t d M K B T ! U g 7 3 5 < 7 z E Q _ =.n w Y E x 7 4 G z T y u B a ; i n D I U ",
"Y J x p k m V I J +. .C 5 8 p k k g j D P n z a q e f H W P ^ W U 8 y f h Z Z I W I ~ +.l 7 p z r r 9 L Q } M V n N l K n G H H ",
"W L n a l b m H E } } Z 7 w e d g u p A D b n z e 0 u k m V J T I r l M m J F H D J _ } n q * : 6 t i ) 8.&.! ( P m Y H x V B U ",
") U Z k x c m S I X.O.S 5 e e y r 9 u x m n v l t e r y i a v R T j I F B V b g n H ' ^ m r ; 1 r j U ] ,.<./ ' Y F I C V V S W ",
"( E L z k b C R +.<.$.D 6 7 7 p h u s x D Z k g i z 0 8 q y h T _ S ] U m n j b E | } / I F 0 l D L Q %.,.%.K C D I ..G v D ! ' ",
"L J J k r x B  .y.7.7.K y q 5 9 r 8 g W G Z b B i i p e y t h T L y k c j y 7 M +.K a D [ %.M M T ` ..^ } ` K H c V J ) Y I ;.#.",
"L H Q k g F U o.w.5.r.x < 2 - # 5 p E ] I V N n y s v k f i N Q F y a h l t > 0 y 1 3 V | :.L B F W H b P ) C l k s > w Q K h  .",
"D A D I 2.*.] ~ |  .,.P i p N x n P _ | ` E Q C k A S m c V W  .{ Y G H R T T j a u i l U O.i.<.( o.V V P R b z z s l C w 0 7 E ",
"[ ! | 6.:.~ Y T ~ R Y :.:.e.y.<.X.{  .{ r.y.w.3.+.=.! C D ~ @.~ @.1.%.] _ ..X.o.O.#.#.R L ( Q R U S T _ Q Z ) W / ~ R ~ L D I _ "
};
