/* XPM */
static char *result[] = {
/* columns rows colors chars-per-pixel */
"64 64 238 2 ",
"   c #77636D",
".  c #7B6B75",
"X  c #7D727C",
"o  c #75777E",
"O  c #6B7378",
"+  c #855F68",
"@  c #86686D",
"#  c #966B6E",
"$  c #9B736F",
"%  c #846B75",
"&  c #8C6C74",
"*  c #846E7B",
"=  c #8C6E7A",
"-  c #876673",
";  c #936D75",
":  c #9A6D74",
">  c #946E79",
",  c #9B6E7A",
"<  c #837275",
"1  c #8C7275",
"2  c #84747C",
"3  c #8C737C",
"4  c #8D7A7D",
"5  c #897A79",
"6  c #937276",
"7  c #9C7375",
"8  c #9B7A75",
"9  c #94747B",
"0  c #9B747C",
"q  c #947A7D",
"w  c #9C7B7D",
"e  c #967A77",
"r  c #A26D74",
"t  c #A86E77",
"y  c #A37474",
"u  c #AB7574",
"i  c #A27A75",
"p  c #AA7977",
"a  c #A3757B",
"s  c #A9767D",
"d  c #A37B7C",
"f  c #AA7B7C",
"g  c #B37B7C",
"h  c #B27678",
"j  c #95817D",
"k  c #9C827D",
"l  c #9C8074",
"z  c #8F807B",
"x  c #A3827C",
"c  c #A9817E",
"v  c #A28177",
"b  c #B1827E",
"n  c #7B7985",
"m  c #8C7582",
"M  c #837A84",
"N  c #8C7B83",
"B  c #8C7E8A",
"V  c #857784",
"C  c #937583",
"Z  c #9B7582",
"A  c #947B83",
"S  c #9C7C83",
"D  c #947C89",
"F  c #9B7D8A",
"G  c #9D778A",
"H  c #9A7E92",
"J  c #A27682",
"K  c #AB7582",
"L  c #A37D83",
"P  c #AB7C83",
"I  c #A37E8A",
"U  c #AA7E8A",
"Y  c #B27D81",
"T  c #B17C89",
"R  c #BA7F83",
"E  c #A27C93",
"W  c #8E8284",
"Q  c #8C848B",
"!  c #8A8A8C",
"~  c #948184",
"^  c #9D8284",
"/  c #95848B",
"(  c #9D848B",
")  c #948A8D",
"_  c #9C8A8D",
"`  c #998984",
"'  c #8B8B92",
"]  c #948592",
"[  c #9D8591",
"{  c #958C94",
"}  c #9B8B93",
"|  c #9C8D9A",
" . c #978B9A",
".. c #9D9294",
"X. c #9C939B",
"o. c #9C9A9B",
"O. c #969598",
"+. c #8C9596",
"@. c #A38284",
"#. c #AA8384",
"$. c #A58986",
"%. c #A4838B",
"&. c #AB848B",
"*. c #A4898D",
"=. c #AB8A8C",
"-. c #AC8886",
";. c #B48384",
":. c #B1848B",
">. c #B48B8C",
",. c #A7908F",
"<. c #A48491",
"1. c #AB8590",
"2. c #A28C94",
"3. c #AA8D93",
"4. c #A48D99",
"5. c #AC8D9A",
"6. c #B28C92",
"7. c #B18690",
"8. c #A39395",
"9. c #AC9195",
"0. c #A3939C",
"q. c #AA949C",
"w. c #A49C9D",
"e. c #AB9B9D",
"r. c #B39B9D",
"t. c #B49398",
"y. c #B0918F",
"u. c #9DA29E",
"i. c #A4A19E",
"p. c #9C94A1",
"a. c #9E9BA4",
"s. c #A295A2",
"d. c #AC96A1",
"f. c #A39CA4",
"g. c #AC9CA3",
"h. c #A99DAC",
"j. c #B39DA2",
"k. c #BC9DA3",
"l. c #9EA5A5",
"z. c #A6A4A4",
"x. c #AEA2A5",
"c. c #ADA3AA",
"v. c #A8A8A9",
"b. c #B3A2A4",
"n. c #B2A4AB",
"m. c #B8A8AA",
"M. c #B5B1AD",
"N. c #ABA9B4",
"B. c #B6ACB7",
"V. c #BCBBBD",
"C. c #B8B4B8",
"Z. c #A8B2B0",
"A. c #C19799",
"S. c #CAA7A9",
"D. c #C2BCBB",
"F. c #C5B3B9",
"G. c #D0B1B7",
"H. c #C3C0BC",
"J. c #BBBCC3",
"K. c #C3BDC3",
"L. c #C8BDC6",
"P. c #D3BAC0",
"I. c #BCC2C4",
"U. c #BCC5CB",
"Y. c #BECCCC",
"T. c #B4CACA",
"R. c #BCCED3",
"E. c #BFC7D2",
"W. c #BDD4D3",
"Q. c #BDDAD5",
"!. c #B9D7D9",
"~. c #AACDD3",
"^. c #BEE1DC",
"/. c #BDE7DA",
"(. c #C4C3C5",
"). c #CCCAC5",
"_. c #CAC5CC",
"`. c #C3CACB",
"'. c #CBCCCC",
"]. c #C6C4C7",
"[. c #D2CDCD",
"{. c #D7C6CA",
"}. c #C4D4CD",
"|. c #CCD2CD",
" X c #CCD8CE",
".X c #D5D1CE",
"XX c #C5CED3",
"oX c #CBCDD3",
"OX c #C5C7D3",
"+X c #D3CCD2",
"@X c #D9CCD5",
"#X c #D4CFDC",
"$X c #C4D4D4",
"%X c #CBD4D4",
"&X c #C5DBD5",
"*X c #CBDBD6",
"=X c #C4D3D9",
"-X c #CBD6D9",
";X c #C4DBDA",
":X c #CCDCDB",
">X c #D2D4D3",
",X c #D2DAD6",
"<X c #D3D5D9",
"1X c #DCD3DA",
"2X c #D3DCDB",
"3X c #DADCDB",
"4X c #D9D6D5",
"5X c #E3DBDD",
"6X c #E9D9DE",
"7X c #EBD2D7",
"8X c #C5E2DC",
"9X c #CBE3DD",
"0X c #CAE9DC",
"qX c #D3E3DD",
"wX c #DCE2DD",
"eX c #D3E9DF",
"rX c #D9E9DF",
"tX c #E1E3DE",
"yX c #CCDDE2",
"uX c #C3DDE2",
"iX c #D3DCE3",
"pX c #DBDCE1",
"aX c #D5D5E1",
"sX c #E6DDE4",
"dX c #CCE3E2",
"fX c #CCEAE3",
"gX c #C6E6E2",
"hX c #D4E3E2",
"jX c #DBE4E3",
"kX c #D5EAE2",
"lX c #DAEBE4",
"zX c #D6E4E9",
"xX c #DAEBEA",
"cX c #D9E7E9",
"vX c #D6F4E8",
"bX c #E3E5E4",
"nX c #E7E9E8",
"mX c #F5E8E9",
/* pixels */
"n n O O o ! / A < W ! ! +.' n ' N A A S ~ 9 0 Z J Z 9 k.mXj.6 S F = < * X 2 V * B 3 3 S L L w 7 .   . 2 V .   2 X .   3 6 S $.S.",
"V V M M Q ( ( %.S A ( Q M Q V / A q S F S S Z Z , a I F.6Xm.0 , C - - * * V N 2 4.S & & 0 &.P 7 < 1 5 N m V V B D A 3 0 6 #.;.A.",
"C C C F I F J U U a I I 3 C F E S A F L S S J 0 U a I b.mXm.1 6 > - - = 3 2 m N [ F 6 1 9 P #.L 0 q A C C A D C m G 9 0 ; P d s ",
"J Z F F %.U I U I Z U <.C Z I <.S S L L w S @.0 0 L ^ M.nXM.*.$.> & < 3 3 2 4 N A A ( S w w #.@.( A 0 A F D m = m C G Z 9 #.K 7 ",
"L S 0 J %.1.&.F C F I I Z Z S ^ %.S S L q S @.w 0 Z q v.tXM.6Xb.9 = 3 3 4 < 2 N / m q S @.^ @.@.%.^ S ^ ( ( A m m 9 A Z a &.L 7 ",
"S L w 0 J &.F * = F I F I F S S L a L d 0 S L 0 d S 3 D.tXH.M.j , 9 6 C N 3 3 A A > 0 %.#.S L ^ S %.@.F F %.F 9 C 9 > ; , P a : ",
"@.$.#.J Z %.D 2 2 D C I I S ( ~ L L J J Z 0 0 Z &.L 2.M.mXm.< q , Z Z Z S C C C > = Z I %.L L P w P ^ S S S A 9 9 9 9 ; w J 0 0 ",
"` @.x 0 Z ^ / B V B m F A 9 A N S Z w S A 0 3 0 S %.A C.nXi.z e Z Z C 9 C m 3 C A C S ( L I %.Z ^ q q A S ^ A 3 & = 1 % 0 S 9 9 ",
"k =.L %.F F ] B n V D m H C m 3 ) ( S 3 D N N D F ( ) K.bXo.N 3 > C G * V D D / [ m m E D A D A S q 4 A / ` q q A 3 1 A q q % 1 ",
"k @.J U I C B B X V C C G C C A / ~ / A / N B H H / } K.nXw.5 0 m C C % * m m m V C A C * % V m e ` A S S q q 1 3 1 = C 9 3 % 9 ",
"S @.0 0 Z C * * % * C C G G E <.A 4 / 2.| V 2 m D F d._.pX0.% & C C m - . 3 m = % C m . - .       9 6 6 9 ; 7 ; ; @ ; ; @ - @ - ",
"b.b.e._ d.j.w.{  .{ p.4.0.0.n.j.o.o.c.C.C.z.z.c.j.B._.<X3XV.8.9.[ / {  .X.f.c.c.h.j.h.0.c.s.| X.9.j.q.e.j.j.m.r.m.r.t.r.r.e.q.1.",
"tXrXwX XqXrXkXqXhX:XhXhXqX2XjX2X&XqXkX*X:XfXxXhXzXcXhX&X8X*X,X5XjX2XqXjXqXqXlXcXcXpXnXiXjXiX9XhX3X3X2X,X3X3X4XwXtX>X4X3X4XwX3X<X",
"lXrXrX0X0XQ.9X9XkX9XkX0XfX9XqXqXkXeXeX9X0X8XdX:XiX2X0X8XfX0X*X>XqX9XqXeXeX9XeXlX9X:XlXqX9X9X;X&X&X;X9XqXeXrXqXrXrXrXlXrXjXkXkXkX",
".X).).H. X X3X)..X>X,X X,X<X4X1X>X).)..XpX%X`.oX1X'.`.Y.}.}..X{..X,X.X|.'.).).'.[.[.>X>X4X3X%XwX:X2X*X%X%X X,X X.X.X,X|.%X|.'.'.",
"=.` z ` S.{.7XS.L %._ ~ 2.*.<.6.*.*.%.( e.q.} F F ( ~ / Q ` =.&.$.9.` S ` ^ _ ^ ^ S S ^ *.<.4.7XsX1Xn...8.8.i.,.r.i.e._ e.0._ ) ",
"d 9 4 2.f._.jX@Xa ;.g u i p P =.-.d a 8 7 w @.x x w $.#.a =.=.=.Y ;.:.#.:.;.a f f p u r t a e.4X=X*XC.N *.Z w =.,.y.*.%.r.*.A 4 ",
"a 6 3 D } _.bXF.s g h g b i a =.#.c d 8 7 d #.x 6 d t.6.#.:.7.%.;.:.$.w @.@.p x f i t r r 9 X.<X%XoX@XF 0 7 d %.x w #.#.%.w 4 A ",
"a 6 3 A N oXnXM.a h h p f y y #.#.#.#.p a d L d ; 6 y.6.d &.6.P #.L @.k k @.d @.x i y : 0 9 o.%X%X_.L.9 9 , a P L 8 J d #.&.*.F ",
"7 e q 2 V XXnXm.c b p $ i p d @.d @.@.@.@.@.^ ^ w w 3.3.%.3.9.#.L d @.^ d c p -.v i y y 0 0 ..,X*XoXw.% 0 0 9 L 8 L 9 L 1.%.2.) ",
"7 q A < N oXnXM.$.;.;.v i p P x ^ w S #.` S ^ ` ^ @.2.*.3.9.$.F #.@.x d d d f f i y y r s 9 ..,X&X-Xx.3 F 9 ; w 0 w 9 w *.2._ b.",
"y w 9 = / <XnXx.d f g b c g f f $.w d #.@.d #.1.F #.@.%.1.=.Z %.$.d @.@.d f f a a $ r u a 6 _ ,X2X-XK.N ; 0 0 w w 9 L w k.P.0.b.",
"a , > & w .XbXi.7 t g b b g g Y #.P #.&.L L &.&.&.L P I &.&.U :.x 8 k k d K d p i $ $ r a 1 _ 2XhX-XC.3 ; , J L 6 ; &.t.G.{.0.~ ",
"K 6 w C q .XnXi.7 s g c f ;.;.c #.#.&.#.d L P w =.0 F &.%.&.%.%.%.q q q 9 d P f a 7 r u y 1 ..wX;X2Xx.3 9 ; 6 S 9 6 F k.t.~ M W ",
", 6 S A < [.bXi.8 a a x #.;.f a d =.3.x d @.S @.@.@.^ F %.%.@.=.@.w 6 S 0 P Y P a # y r r L j.5X;X2Xz.2 9 S F q 3 e A ( / ~ / ) ",
"; ; 9 9 & (.bXV.w d @.@.@.d f L @.#.#.w w L w %.L S F @.F S ( %.w w L %.U T T P P y y s K Z 4.sX3XjXn.C S J J 9 1 9 0 S F ( ) / ",
"+ @ @   < H.wXD.Z J J ^ w 0 d @.@.w 9 6 q 0 9 0 S w w L q 0 S F 3 9 A 0 S J J 0 7 1 @ : a > } @X<X@Xd.; > , 0 0 6 > > > Z I F m ",
"t.e.8.8.8.'.,XI.j.r.q.e.e.r.r.i.i.r.e.w.e.x.e.8.j.e.g.x.n.g.g.g.z.z.z.w.g.q.q.g.w.i.e.9.j.n.C.:X<X>Xg.A G I S A 2.( ( F ( 2.2.} ",
"bXjXqXwX*X9XgX0X3X1X<X:X:X2X,X,X%X*X*X*X-X2X2X%X$X%X$X$X2X*XyX-X%X&X;X*XiXoX%X-X&X&X,X.X%X3X;X!.W.&XI.C.].).].].|.|.'.'.+XoX>X%X",
"lXkXkXkXeX0X/.0XiXjXzXdXfX9XkXfXfX0XgXfX0X8X8X:X;XdX;X!.!.!.!.~.}.W.W.=X2X*X-X9X8X8X9XqX<X-XdX^./.9X*X*X2X,X%X*X&X*X9XqX,X*X*X:X",
"3X3X,X>X,XqX9X$XoX@X#XXX$X2XiX:XhX:X-XiXiX-XyX-XyXiXyXyXyXyXzXJ.$X$XXX-X<XaXiX:X9X*X%X<X@X<XiXyX&X&X%X|.>X[.`. X&X%X,X<X<X<X>X%X",
"} _ } *._ ) ! / D E F B { d.d.X.|  .{ | p.s.h. .s. .| h.N.K.#XJ.{ { ' { ] f.s.' +.o.! ] 2.| ' ! l.o.0._ } ) z W O.o.X.{ 2.d.d.0.",
"1 3 3 1 5 @ @ q q %.3.0 7 #.>.i 9 ` k Z %.P a : 7 9 8 _ 2.B.sXh.A ` @._ $.` S w S A q ( ( N X X ~ A S 9 6 q 4 3 Z #.L 9 5 q %.&.",
"9 S w q q S w F %.F *.w 8 #.>.#.5 j ^ @.*.#.J 6 #.=.` / } C.sXa.L =.3.@.@.%.L w @.@.%.*.( A N D ` 3.1.S F ~ q ^ %.&.#.w 6 9 d P ",
"A A C ^ S @.^ %.S 3 A 9 w P $.P j 4 j ~ %.^ S ^ @.9._ ` 8.V.3Xv.0 $.:.d w @.@.w @.P %.%.^ A A ` ` 9.6.I @.^ q @.&.=.&.^ q e Z L ",
"Q 2 2 ` A S S _ 5 % 3 A ( ^ L Z j 4 4 4 A S e w ^ k k _ e.(.<XN.$ @.$.w 8 @.^ w S w w ^ ~ A ~ ` ~ j @.@.w ` ` j @.@.^ k j z w w ",
"n o X ` D ^ %.*.9 < N / ` / I S q e A 4 ~ ~ 1 1 w & 6 $.0.).1Xl.8 c $.d k @.w w ^ F @.@.` @.` $.` j k k k _ ` j $.@.^ j z z q k ",
"X X B F L I &.^ A 5 A / m A S I w S ~ 5 4 z 5 & q 6 @.%.` D.bXl.u p f v L x S w P &.&.&.#.#.@.@.` $.@.d x $.e ` t.=.@.@.k q w @.",
"n V [ F I K :.L S 3 4 A C G Z Z S ^ q < X 5 4 A w 6 @.S A C.cXl.u u p a a L J L I U :.:.P P f #.@.-.#.a @.@.e ^ y.:.#.%.w q 7 d ",
"M V } G L a P $.@.q A [ C G Z Z 9 S 4 2 < X ~ ` ^ ; 6 6 _ D.nXv.u p f y 0 0 A w I %.U &.#.&.-.#.$.@.P d x $.$.^ >.&.&.$.%.A S L ",
"n M / A > J &.8 1 1 ~ 8.) S S F J S 9 3 m 4 } A Z , : : 1.(.nXo.f #.c w 1 A A A F F F F ^ 0 @.L ^ S J J %.` ^ A *.&.1.( D A C Z ",
"n m < & 0 d d &.8 1 3 ^ F F S 6 I U C 9 2 * F I Z : J 7.*.G.sXM.d @.#.Z 3 A D m F F C S F 0 S S ( Z Z J F S A S S I I G A C G S ",
". V - @ #.d ; w 6 9 F ( 9 9 S Z Z Z 3 2 X   2 C %.0 0 &.<.{.@Xf.0 9 0 A 3 m m * C F C C F 9 = 9 A C C Z C = 3 C G J G C C F G Z ",
"| ....8.e.b.r.e.9._ _ 8.0.q.0._ / { Q Q O.Q Q { { } / { f.'.I.Z.3.2.| w.X.X.X.| p.s.s.| 0.| 4.0.| } 2.2.} ] | X.4.q.0.| X.X.| [ ",
"jXqX*X X*X9X,X,X-X%X>X<X,X,XqX X2X:X$XXXyX:X-X<XiX*X%X%X%X$XY.uX,X%X%X:X9X:X;X;X:X$X-XU.$X%X:X$X;X:X$XOX=X=X&X=X-X2XiX:X:X*X-XoX",
"hXlXqXfXvXfX0XkXcXhXjXjXlXlXlXeXkXlXjXhXxXcXzXhXhX-X2X9X:X;XdXdX;X;X;X8X8X;X8X&XdX:XdX:XdX9X;X!.^.gXgX:X;X8X^.gX:XiXhXfXgXgXdXyX",
"5XsXbXwXhXlXeX*XJ.OXoX_.K.V.`.*X,X<XpXpXpXaX<X<X<X2XpX<X%XaXpXaX<X%X%X<X-X%X%X$XU.'.%X-X%XOXI.aXdX:X-XaX2X;XiXzX:X<X<X:X:X&X%X<X",
"5.<.0.| ' V.1XF.H H G G <.( / ..{ W { ]  .H ] | ] X.Q !  .o.s.X.| | | | { { ) ( ~ 0.2.q.4.| ] _.<XB.p.| p.p.a.f.g.s.0.s.X. .} 2.",
"9 0 9 Z 3 C.pXv.*.T s d s g f p ~ S A e q w ~ ^ ^ A A ^ ^ ^ @.x j $.$.#.a #.$.7 p y y y a w A ).aXJ.C m _ e ` _ d &.T P &.%.%.%.",
"7 S C S 3 K.cXN._ P f #.;.#.@.x @.^ ^ d w w #.*.*.%.%.F S w @.#.^ w J I P L w w d s Y P a 6 A L.sX| A G w k j w f Y Y P #.#.#.$.",
"6 q 9 A m '.lXZ./ Z d x c f i l @.L L f #.P $.&.1.&.%.%.L K #.;.S 0 Z Z %.I L P P I T P , = N L.%Xz 3 w 8 $.x v v b g f c x c c ",
"0 1 & 9 A %XlXz.~ w a x d f f v S S d @.#.d #.&.3.%.^ P $.#.d a ~ ` S S @.I w w S d a 0 0 3 W (.}.i.~ w l l k l v c c f x x x c ",
"d 0 0 F 5.bXkXu.q 0 a 8 p p p p w w @.@.@.#.$.@.=.*.S S @.$.x @.^ k k w x w e k k 8 $ 8 6 e W H.9X}.8.@.@.8 v 8 d c L d x $.x $.",
"; q S C 1.nXqXO.4 7 7 y i u i p @.d @.c #.#.#.=.%.&.L w #.P p f k $.$.v #.x k k v i $ y 8 e ` H.9XC.[ I P P L L d P L L $.@.#.#.",
"6 S @.S 5.sXqXV...$.-.x p p f p @.@.#.@.c #.&.#.@.@.S L &.#.p c &.>.>.#.L &.@.7 p a i y a w _ {.yXB.D Z K K t J P P L L P U U T ",
"1 6 q 0 ( +X*X2Xb.r.9.$.x y i d w @.x d x #.-.@.-.%.w q -.=.$.:.L a I :.1.1.&.@.F a , a Z I } +XdXI.A > K s , a P U P J %.&.P P ",
"9 9 & Z I 1X2X`.,.k =.S.>.a f a ^ e q w q w ^ 8 ^ q q A @.@.#.-.S F &.1.I F S S F L 9 , Z m } +X9XZ.4 a y a a 8 0 w w w w 8 8 0 ",
"6 9 9 , <.6XbX)._ Z ; 8 d f P d 0 w ^ #.S x @.S 3 ; 9 9 =.&.@.#.$.&.&.U J Z S @.@.d y a L S 9.[.9Xz.< d s y 6 8 7 8 x x k w w f ",
"< 5 q 9 1.1XwXI._ 8 @ e *.P 0 w Z 0 Z L a 0 9 ; > 9 C ; P I L #.d x P d a 9 0 q w 7 7 7 : 1 8.{.*Xv.3 L a : @ 6 6 0 L F S q w p ",
"o.o.f.0.n.%X9XT.z.v.C.H..XM.g.o.j.j.e.9.9.9.<.( [ 2.0.[ *.( %.&._ ,.9.8.8..._ .._ _ 3.3.*.8.M.+XR.V.s.5.q.2./ [ 0.8.4.0.0.0.8.2.",
" X X8X X-X:X0X^.*X%X2X$X%X%X-X;XiX,XoX'.|.>X'.`.`.U.2XoX`.].'.(.XXoX'.OXXXXXXX=X`.`.oX_.].OXT.~.~.!.E.OXoXXXXXR.-XOXOX=X$XXX`.U.",
"0X&X*X3X3XR.!./.&X`.*X:X&X*X:X=XQ.9X:X&X&X;X;X;XyXW.;X!.&X=X9XqX9X;X;XyX;X=XuXgX!.=X-XXX=XuX!.!.!.uXyXiXhXdXgXfXyXyXiXiXdXyXyX:X",
"}. X|.1X@XOX=X;X-X_.oX2X-X-XXX$XW.=X$X$X%X&X=X=X=XR.=X=X:XY.I.U.`.V.K.`.U.U.=XR.XXoX_.K.J.U.U.R.=XOXOXL.I.I.R.`.E.J.K.K.(.I.I.I.",
"o.i.0.d.4. .O.O.0.4.| X.| f.| p.p.f.a.X.s.f.a.a.a.N.L.oX<Xv.M 5 ~ . < m 2 Q s.o.w.0.2.<.2.4.{ o.p. .H C A W O.! 4.[ F ( | 2.) _ "
};
