/* XPM */
static char *result[] = {
/* columns rows colors chars-per-pixel */
"64 64 256 2 ",
"   c black",
".  c #010101",
"X  c #020202",
"o  c gray1",
"O  c #040404",
"+  c gray2",
"@  c #060606",
"#  c #070707",
"$  c gray3",
"%  c #090909",
"&  c gray4",
"*  c #0B0B0B",
"=  c #0C0C0C",
"-  c gray5",
";  c #0E0E0E",
":  c gray6",
">  c #101010",
",  c #111111",
"<  c gray7",
"1  c #131313",
"2  c gray8",
"3  c #151515",
"4  c #161616",
"5  c gray9",
"6  c #181818",
"7  c #191919",
"8  c gray10",
"9  c #1B1B1B",
"0  c gray11",
"q  c #1D1D1D",
"w  c #1E1E1E",
"e  c gray12",
"r  c #202020",
"t  c gray13",
"y  c #222222",
"u  c #232323",
"i  c gray14",
"p  c #252525",
"a  c gray15",
"s  c #272727",
"d  c #282828",
"f  c gray16",
"g  c #2A2A2A",
"h  c gray17",
"j  c #2C2C2C",
"k  c #2D2D2D",
"l  c gray18",
"z  c #2F2F2F",
"x  c gray19",
"c  c #313131",
"v  c #323232",
"b  c gray20",
"n  c #343434",
"m  c #353535",
"M  c gray21",
"N  c #373737",
"B  c gray22",
"V  c #393939",
"C  c #3A3A3A",
"Z  c gray23",
"A  c #3C3C3C",
"S  c gray24",
"D  c #3E3E3E",
"F  c #3F3F3F",
"G  c gray25",
"H  c #414141",
"J  c gray26",
"K  c #434343",
"L  c #444444",
"P  c gray27",
"I  c #464646",
"U  c gray28",
"Y  c #484848",
"T  c #494949",
"R  c gray29",
"E  c #4B4B4B",
"W  c #4C4C4C",
"Q  c gray30",
"!  c #4E4E4E",
"~  c gray31",
"^  c #505050",
"/  c #515151",
"(  c gray32",
")  c #535353",
"_  c gray33",
"`  c #555555",
"'  c #565656",
"]  c gray34",
"[  c #585858",
"{  c gray35",
"}  c #5A5A5A",
"|  c #5B5B5B",
" . c gray36",
".. c #5D5D5D",
"X. c gray37",
"o. c #5F5F5F",
"O. c #606060",
"+. c gray38",
"@. c #626262",
"#. c gray39",
"$. c #646464",
"%. c #656565",
"&. c gray40",
"*. c #676767",
"=. c #686868",
"-. c DimGray",
";. c #6A6A6A",
":. c gray42",
">. c #6C6C6C",
",. c #6D6D6D",
"<. c gray43",
"1. c #6F6F6F",
"2. c gray44",
"3. c #717171",
"4. c #727272",
"5. c gray45",
"6. c #747474",
"7. c gray46",
"8. c #767676",
"9. c #777777",
"0. c gray47",
"q. c #797979",
"w. c gray48",
"e. c #7B7B7B",
"r. c #7C7C7C",
"t. c gray49",
"y. c #7E7E7E",
"u. c gray50",
"i. c #808080",
"p. c #818181",
"a. c gray51",
"s. c #838383",
"d. c #848484",
"f. c gray52",
"g. c #868686",
"h. c gray53",
"j. c #888888",
"k. c #898989",
"l. c gray54",
"z. c #8B8B8B",
"x. c gray55",
"c. c #8D8D8D",
"v. c #8E8E8E",
"b. c gray56",
"n. c #909090",
"m. c gray57",
"M. c #929292",
"N. c #939393",
"B. c gray58",
"V. c #959595",
"C. c gray59",
"Z. c #979797",
"A. c #989898",
"S. c gray60",
"D. c #9A9A9A",
"F. c #9B9B9B",
"G. c gray61",
"H. c #9D9D9D",
"J. c gray62",
"K. c #9F9F9F",
"L. c #A0A0A0",
"P. c gray63",
"I. c #A2A2A2",
"U. c gray64",
"Y. c #A4A4A4",
"T. c #A5A5A5",
"R. c gray65",
"E. c #A7A7A7",
"W. c gray66",
"Q. c #A9A9A9",
"!. c #AAAAAA",
"~. c gray67",
"^. c #ACACAC",
"/. c gray68",
"(. c #AEAEAE",
"). c #AFAFAF",
"_. c gray69",
"`. c #B1B1B1",
"'. c #B2B2B2",
"]. c gray70",
"[. c #B4B4B4",
"{. c gray71",
"}. c #B6B6B6",
"|. c #B7B7B7",
" X c gray72",
".X c #B9B9B9",
"XX c gray73",
"oX c #BBBBBB",
"OX c #BCBCBC",
"+X c gray74",
"@X c gray",
"#X c gray75",
"$X c #C0C0C0",
"%X c #C1C1C1",
"&X c gray76",
"*X c #C3C3C3",
"=X c gray77",
"-X c #C5C5C5",
";X c #C6C6C6",
":X c gray78",
">X c #C8C8C8",
",X c gray79",
"<X c #CACACA",
"1X c #CBCBCB",
"2X c gray80",
"3X c #CDCDCD",
"4X c #CECECE",
"5X c gray81",
"6X c #D0D0D0",
"7X c gray82",
"8X c #D2D2D2",
"9X c LightGray",
"0X c gray83",
"qX c #D5D5D5",
"wX c gray84",
"eX c #D7D7D7",
"rX c #D8D8D8",
"tX c gray85",
"yX c #DADADA",
"uX c gray86",
"iX c gainsboro",
"pX c #DDDDDD",
"aX c gray87",
"sX c #DFDFDF",
"dX c gray88",
"fX c #E1E1E1",
"gX c #E2E2E2",
"hX c gray89",
"jX c #E4E4E4",
"kX c gray90",
"lX c #E6E6E6",
"zX c #E7E7E7",
"xX c gray91",
"cX c #E9E9E9",
"vX c #EAEAEA",
"bX c gray92",
"nX c #ECECEC",
"mX c gray93",
"MX c #EEEEEE",
"NX c #EFEFEF",
"BX c gray94",
"VX c #F1F1F1",
"CX c gray95",
"ZX c #F3F3F3",
"AX c #F4F4F4",
"SX c gray96",
"DX c #F6F6F6",
"FX c gray97",
"GX c #F8F8F8",
"HX c #F9F9F9",
"JX c gray98",
"KX c #FBFBFB",
"LX c gray99",
"PX c #FDFDFD",
"IX c #FEFEFE",
"UX c white",
/* pixels */
"^.^.Y.H.P.P.I.Q.(.(.!.^.~.Q.Y.V.A.U.P.K.Y.].{.}..XoX}.{.{.!.K.k.k.C.z.a.a.s.r.q.e.u.a.c.F.Z.m.v.z.G.S.z.a.r.r.s.l.f.g.z.z.M.g.6.",
"}.].^.K.J.J.H.E.(.|.[.).]._.Y.F.z.H.!.).U. X;X X].{./.(.[.T.n.:.f.F.b.4.-.&.:.;.0.w.p.G.!.!.R.F.L.J.d.p.0.7.<.<.8.u.f.f.h.b.V.B.",
").E.J.M.M.m.V.J.L.E.~.T.K.Z.i.7.t.p.K.{.).]. XR.K.T.I.T.T.G.z.` <.Z.x.7.1.;.0.w.u.s.d.v.F.T.P.R.T.Z.0.t.y.y.e.9.q.e.f.f.s.x.C.A.",
"/.Y.B.d.i.s.v.A.G.J.T.Y.K.c.q.<.,.4.s.Y.E.R.Q.F.C.Z.V.S.F.S.x.W | r.e.>.-.>.9.q.5.0.6.p.N.J.K.^.U.H.g.9.w.u.f.a.e.8.0.r.i.b.Z.Z.",
"^.P.k.9.0.s.x.x.M.S.F.P.m.t.a.8.>.=.4.d.b.M.C.l.p.i.h.B.V.S.k.W ^ 0.e.;.<.4.e.r.3.3.4.i.l.H.H.F.D.P.C.u.y.p.l.k.e.6.3.:.9.z.F.B.",
"~.K.f.*.>.h.x.j.k.n.S.A.d.e.u.w.5.$.<.0.u.d.v.M.s.t.i.v.z.V.N.` ( 1.0.,.1.1.t.p.3.5.3.6.8.d.c.M.i.p.b.d.0.u.g.k.e.<.=.| $.e.N.Z.",
").K.k.=.-.l.M.z.g.c.S.M.l.0.4.,.:.+.4.y.u.i.j.Z.V.N.Z.C.m.K.J.3.5.j.l.5.:.p.p.e.1.w.0.<.2.8.s.N.p.y.p.w.1.t.x.v.y.6.o.] &.q.D.H.",
").P.c.6.#.q.x.x.k.v.Z.Z.d.0.p.9.q.:.:.6.9.y.p.V.J.T.E.H.Z.L.R.8.6.g.c.e.:.t.j.y.q.a.s.>.&.-.0.c.f.p.q.4.:.r.z.z.e.4.O.#.7.k.K.H.",
"`.W.B.y.5.8.d.v.c.x.m.n.a.i.t.z.g.r.7.9.w.u.i.x.B.H.L.J.K.!.E.9.r.x.j.p.p.g.c.f.f.j.d.-.+.$.>.i.k.x.u.5.5.r.s.a.q.1.%.>.7.c.C.b.",
"S.I.Z.j.s.f.z.M.M.M.m.p.9.l.d.j.b.l.s.p.r.q.r.r.f.h.c.A.D.!.'.h.t.c.k.g.j.k.B.b.b.M.c.8.' O.>.0.d.x.v.t.0.t.d.p.y.7.6.u.h.c.n.s.",
"m.T.Z.d.a.j.g.z.C.S.J.S.k.a.t.g.x.N.b.s.9.6.4.3.w.q.i.m.L._. XN.f.n.n.k.p.i.n.V.N.M.M.q.@. ...%.3.g.M.d.a.y.0.r.e.7.i.p.p.a.N.t.",
"Z.L.m.y.t.8.e.n.K.K.H.L.n.l.3.t.g.x.b.a.5.3.=.&.>.1.a.S.!.oXoXC.g.x.l.f.6.0.j.B.V.A.Z.l.r.@.#.2.9.j.M.v.x.a.w.i.9.4.7.w.i.h.l.7.",
"(.T.B.a.t.8.p.K.U.Z.C.P.Z.u.r.u.d.l.c.d.6.:.] { o.<.x.P.(.oX%XS.f.f.p.h.s.t.u.m.H.J.H.Z.b.r.,.1.w.f.x.z.g.t.7.9.0.6.1.6.p.c.l.2.",
"(.I.B.s.u.0.0.c.N.m.n.v.S.q.q.w.i.b.M.f.7.-.` ,.3.n.Y./.'.$X*XF.g.h.y.d.i.i.f.b.H.P.P.F.G.m.4.=.9.i.u.r.s.t.9.0.r.q.8.e.i.j.B.t.",
"^.E.Z.s.t.e.9.r.p.r.i.d.v.u.<.6.a.v.c.p.6.=.| :.9.J.I.E.'.=X;XU.l.j.,.3.y.k.x.c.V.G.B.n.Z.V.r.1.t.d.7.t.g.a.7.9.w.3.6.i.a.k.Z.i.",
"I.Q.N.p.r.w.9.>.w.r.s.c.C.A.j.h.n.N.x.a.6.-.<.4.f.D.H.U.Q.OX$XU.M.M.1.>.e.a.f.g.z.z.v.m.c.s.a.a.p.s.2.9.s.a.u.p.7.&.2.w.t.N.F.u.",
"'.T.m.s.f.s.0.1.e.r.p.B.N.K.S.G.L.D.v.g.r.t.d.f.C.C.C.I.(.}.).n.b.C.j.u.4.7.y.d.j.j.A.K.N.f.p.x.g.r.3.t.z.z.z.h.w.2.4.7.9.Z.T.N.",
"Q.C.g.p.a.i.w.q.p.i.y.N.D.Y.U.!.Q.K.n.d.7.a.v.s.f.s.j.Z.!.}.}.r.y.J.x.>.#.3.a.h.i.s.N.z.l.c.p.h.x.p.y.a.l.z.k.v.w.7.8.8.r.m.Q.B.",
"P.n.j.u.u.y.t.q.p.h.x.S.A.S.Z.G.G.B.b.x.w.4.h.g.s.g.j.m.L.(._.6.9.D.u.+.%.r.j.z.f.c.h.r.f.k.b.N.N.x.z.j.g.s.a.x.l.i.q.a.b.V.C.v.",
"T.z.r.e.w.8.3.<.8.f.B.F.D.A.Z.b.z.c.l.u.u.0.q.p.r.w.g.V.Y.!.E.&.0.J.j.$.O.p.v.v.l.s.z.b.l.a.Z.H.F.H.A.m.d.a.a.h.s.h.h.k.N.K.M.z.",
"~.m.r.q.7.<.&.*.<.u.c.N.N.S.M.x.h.h.g.i.w.9.9.y.r.k.N.B.C.I.k.~ 1.I.n.@.,.z.v.M.z.l.Z.N.j.a.M.N.J.P.D.M.d.d.p.i.d.n.m.B.Z.P.T.N.",
"/.M.y.,.1.<.#.*.<.w.u.z.b.C.V.x.f.i.s.s.e.p.g.k.c.V.N.n.h.A.n.X.-.J.k.w.x.N.V.m.M.B.Z.G.D.Z.c.c.K.P.C.b.h.d.u.r.i.x.n.D.D.I.`.D.",
"(.H.k.-.<.6.<.<.1.5.e.k.z.b.Z.N.h.p.d.j.y.a.h.z.n.v.h.l.x.C.C.O.-.D.h.s.v.z.B.B.m.C.D.J.Z.l.7.f.B.F.v.f.j.h.d.y.t.u.d.M.S.I.}.K.",
" X~.v.9.8.r.0.4.<.3.t.x.b.z.x.b.h.s.p.p.t.w.y.h.b.M.k.i.k.m.l.{ 2.F.v.d.h.b.V.V.m.V.C.A.x.y.6.x.V.v.q.q.a.a.y.8.t.s.k.A.b.Z.(.I.",
"+X_.A.u.f.l.h.u.2.6.u.j.n.k.h.c.h.f.s.p.i.6.9.f.Z.G.H.m.v.n.0.{ -.n.x.f.a.b.M.C.B.B.B.V.c.j.m.N.b.f.8.4.y.6.:.4.9.w.f.n.i.c.E.H.",
" X_.H.b.B.N.x.s.5.i.l.d.k.k.k.l.l.l.f.d.s.r.p.M.J.C.G.M.k.g.w.&.3.z.k.a.d.j.j.Z.N.v.b.b.B.N.Z.C.b.j.a.t.t.0.<.-.2.9.i.k.r.x.I.B.",
"~.E.J.N.M.j.x.l.0.9.d.a.j.k.g.u.z.z.a.p.i.t.s.B.D.b.M.Z.x.p.5.&.9.j.z.h.g.a.h.N.b.k.j.d.l.b.m.M.g.7.3.7.0.y.w.0.-.0.w.,.6.v.I.S.",
"~.R.L.b.s.g.h.r.r.q.0.t.f.f.q.6.f.i.t.e.e.w.w.f.x.l.x.x.M.h.4.[ -.a.d.x.x.i.d.k.h.u.u.a.x.v.m.c.y.,.;.=.>.4.0.y.2.w.w.;.:.v.L.Z.",
"W.Y.I.D.d.f.j.p.u.e.r.i.u.j.f.u.p.u.a.u.w.i.s.d.f.d.b.C.F.D.p.O.@.,.5.h.a.t.d.d.p.0.9.r.l.m.N.n.d.q.6.,.3.<.7.3.5.8.-.o.,.y.c.N.",
"T./.^.I.n.B.D.Z.m.c.n.x.m.B.x.c.M.B.B.l.f.m.Z.M.B.Z.L.).'./.P.f.r.0.3.r.e.y.f.j.x.x.v.V.G.K.Y.P.H.U.K.D.A.k.j.p.w.6.-.1.4.1.i.k.",
"R._.).W.D.H.R.R.L.D.K.C.F.A.N.A.A.S.K.P.Y.T.R.P.Y.(.XX@X.X}.^.b.z.m.j.l.l.b.v.z.A.L.W.^.Q.Y.~.).'.+X+X}._.K.S.c.7.0.w.9.1.s.C.c.",
"1.f.b.c.g.k.m.Z.C.V.n.j.f.d.i.r.w.u.f.l.b.x.b.n.D.W.{.}.^.P.B.g.h.n.b.V.D.G.A.c.b.V.H.D.B.N.N.M.Z.Y.L.G.V.j.g.u.;.=.;.:.2.r.y.-.",
"1.y.6.*.;.2.0.a.n.x.j.l.j.h.d.5.5.6.t.y.j.c.k.d.n.L.U.Y.P.F.n.i.e.e.i.k.Z.F.N.g.i.u.a.g.p.t.w.q.u.s.u.y.9.7.5.1.$.o...X.;.:.] U ",
"l.h.+.` *.1.5.w.j.l.b.b.M.x.0.0.s.1.8.u.g.V.F.v.a.F.D.G.~./.F.r.i.b.d.p.d.v.z.q.5.8.5.u.k.s.u.j.c.x.n.B.M.M.s.u.6.0.p.g.b.H.S.B.",
"l.a.-.-.q.j.l.l.z.v.l.l.Z.j.*.=.w.=.@.#.5.y.c.n.j.v.n.c.H.L.k.O.6.C.r.7.i.k.g.8.6.5.5.5.5.w.y.v.V.B.m.M.A.M.a.t.7.8.h.k.x.P.W.I.",
"b.B.i.9.k.B.A.J.Z.B.M.Z.F.I.N.i.y.e.w.-.3.6.a.l.x.j.l.l.c.Z.a.! &.h.w.7.p.n.v.y.e.t.f.p.5.q.t.h.N.C.v.B.B.l.k.j.i.0.i.l.n.Y.~.W.",
"C.n.p.e.l.M.K.U.P.G.B.V.V.P.U.F.N.r.q.:.=.3.i.d.h.d.i.s.f.l.7.T ..r.w.y.h.Z.l.p.p.t.g.z.p.4.7.w.f.c.S.F.b.f.a.h.d.i.i.h.Z.Q.^.W.",
"C.c.u.5.d.n.J.T.P.I.H.F.S.A.Y.I.N.u.t.:.-.8.p.p.s.i.5.a.b.N.a.I Q 5.6.0.p.h.q.t.d.p.u.t.r.6.<.0.q.k.A.D.C.l.e.i.u.w.1.j.A.!.Q.W.",
"Z.b.a.8.d.Z.J.T.A.Z.A.F.J.S.!.W.D.S.b.j.s.t.a.a.f.f.p.g.M.G.N.+.Q *.5.7.,.7.@.7.i.k.a.<.3.6.6.r.c.S.I.P.C.x.f.f.e.6.w.u.B.R.W.!.",
"x.z.f.t.y.l.B.H.B.m.V.H.S.Y.'.~.R.V.z.s.0.6.r.t.d.g.f.l.Z.J.F.$. .%.,.9.:.%.,.q.f.k.r.4.2.5.i.N.P.~.{.!.G.g.u.5.6.2.r.f.J.Y.U.(.",
"l.c.s.i.y.s.j.N.m.u.b.S.G.Y._.R.D.M.d.0.9.w.5.e.d.s.k.b.J.W.E.,.@.7.q.w.r.y.l.n.c.x.k.g.r.r.h.S.G.~.`.!.L.M.d.:.>.9.t.l.L.J.B.S.",
"e.h.u.s.x.h.k.c.k.8.q.z.D.I.E.D.l.b.z.B.q.w.5.4.r.l.B.Z.R.]. Xn.s.m.t.9.i.s.v.c.s.x.n.v.k.h.p.b.V.U.!.!.!.L.N.k.r.t.v.V.I.D.i.u.",
"3.b.A.V.Z.Z.C.f.t.6.3.a.A.W.I.S.z.v.B.f.u.y.,.;.q.x.S.J._.|.@XK.V.K.h.4.5.6.a.a.e.x.f.h.l.x.a.n.F.P.!.H.D.D.A.D.C.f.x.M.N.y.o.:.",
"5.p.S.P.I.Q.K.v.u.t.s.c.H.I.N.n.x.b.g.u.8.8.;.;.r.b.D.T._.].*XW.F.U.h.0.r.7.7.u.i.x.u.i.j.j.j.z.M.G.Q.G.Z.N.B.S.A.j.g.g.v.j.O.$.",
"y.4.j.V.L.F.b.n.f.s.x.n.V.k.j.d.j.l.m.m.p.i.w.q.h.m.b.Q.). X>X_.!.{.n.f.v.j.6.i.f.9.8.r.h.f.i.i.z.M.I.F.M.C.V.z.k.i.p.a.m.U.B.+.",
"9.<.0.f.B.k.f.a.d.s.l.N.m.f.x.l.n.B.I.D.m.m.g.y.n.N.b.K.~.*X1X`.[.#XZ.z.k.k.f.x.b.a.7.f.l.p.e.p.i.v.S.B.k.m.b.j.a.;.2.h.N.Q.Z.+.",
"i.p.e.w.f.p.s.i.y.r.f.m.M.z.N.V.L.A.B.N.x.v.x.p.i.b.B.H.~.%X-X/.(.].b.g.s.j.m.Z.Z.v.r.p.8.8.7.u.p.M.V.h.i.f.d.d.a.w.d.h.m.Y.D.7.",
"j.v.r.8.u.u.p.d.w.y.g.z.z.b.V.L.Q.L.C.n.j.j.c.M.d.k.B.J.E.|.$XE.!. XS.i.e.j.m.N.N.M.m.x.6.;.2.7.q.z.l.t.y.r.u.g.x.m.z.j.M.A.A.s.",
"k.b.i.6.0.t.i.f.p.q.f.v.m.A.B.H.Q.W.P.D.Z.k.j.b.l.d.c.J.U.'.oXN.C.`.S.d.7.f.m.c.M.m.M.V.k.7.2.2.e.p.e.e.r.a.0.p.v.N.c.b.m.b.G.K.",
"d.p.y.y.9.s.f.d.h.a.g.n.M.L.D.F.H.H.L.L.N.a.g.d.z.g.x.H.L.'.OXu.f./.J.N.g.f.z.k.k.k.x.M.l.j.r.<.u.7.;.e.j.m.x.p.i.N.l.l.m.J.Q.Y.",
"g.9.>.2.4.t.w.w.s.e.9.k.m.K.F.M.B.n.N.Z.c.u.l.f.g.n.B.D.L.!.].7.u.`.W.Z.y.w.w.t.r.p.g.N.m.C.g.s.j.s.=.5.g.j.n.z.d.n.z.h.z.D.T.I.",
"d.u.w.1.2.u.p.a.y.5.5.e.f.N.b.p.j.k.g.i.u.t.i.w.u.b.g.k.C.Y.(.>.a.{.Q.Z.h.i.8.e.y.q.a.M.A.H.l.j.a.7.e.u.i.t.g.k.p.g.l.x.h.Z.K.P.",
"f.g.2.,.t.k.j.d.a.7.5.9.s.b.i.e.p.e.q.u.y.e.s.h.j.h.s.h.z.G.Z.o.9.(.J.C.m.p.5.8.a.y.a.z.m.B.b.h.e.=.3.r.s.u.u.9.8.e.y.h.x.P.F.G.",
"p.a.<.*.a.m.B.B.h.t.e.w.t.d.9.p.e.9.w.r.a.g.d.a.g.f.s.i.p.v.h.' ;.L.d.t.d.i.0.u.g.c.l.f.N.G.R.H.j.,.O.,.e.p.r.:.;.-.:.u.b.P.F.c.",
"i.k.e.,.l.B.M.L.B.j.p.p.y.r.1.4.7.6.t.r.9.w.y.t.u.w.w.w.a.B.k._ $.f.-.5.a.j.h.f.g.c.c.z.C.Q.[.R.R.K.c.j.a.s.0.r.6.%.$.q.b.P.R.G.",
"u.d.4.;.n.D.H.K.N.B.y.r.0.2.q.7.9.7.r.t.0.r.q.u.s.x.8.7.p.v.g.] o.p.a.i.l.Z.D.c.g.g.s.h.N.I.!.T.].).L.V.C.v.v.N.z.l.r.e.l.I.!.K.",
"w.e.0.9.n.Z.S.H.S.G.k.a.a.t.t.f.9.#.3.r.f.i.9.t.x.h.t.9.8.t.>.~ X.x.n.k.b.J.G.N.k.s.i.z.x.n.!.].XX{.~.S.S.M.S.G.G.T.m.i.C.E.~.K.",
"9.8.6.a.z.b.b.H.I.J.l.a.q.7.w.a.5.[ >.u.d.t.q.s.f.t.8.2.,.6.4.' -.h.f.c.S.K.Y.P.C.m.z.j.B.G.W._.XX{.~.I.G.B.N.W._.).K.M.A.W.E.J.",
"w.0.7.z.h.l.J.).{.P.v.i.*.#.*.,.=...;.9.e.8.9.e.g.l.7.3.4.9.<.] 2.d.d.z.A.A.S.F.A.V.b.l.b.Z.F.I.R.J.S.D.A.A.B.R.].[.G.L.E.E.~.Y.",
"8.r.i.A.B.C.P.W.R.L.G.s.O./ ) X.o.} &.:.<.4.t.f.B.v.f.7.2.p.6.] %.7.d.x.B.Z.m.M.v.b.c.j.j.x.m.V.C.B.z.d.d.f.c.M.D.H.C.G._.!.E.Z.",
"5.y.h.L.~.F.n.w.V.E.N.<.=.+.{ } *.&.o.*.4.r.j.f.c.b.k.g.x.B.k.&.' -.q.t.d.n.x.z.l.g.f.a.d.g.l.v.k.k.h.u.p.i.s.h.s.a.g.b.G.P.E.A.",
"e.u.B.].'.A.M.2.u.V.i.<.,.>.=.<.r.e.8.8.w.a.k.k.D.^.~.W.).`.P.5.1.,.3.w.u.h.j.n.m.N.n.a.a.h.a.j.A.L.L.K.Y.L.Z.C.m.N.H.C.M.C.L.P.",
"t.p.D.^.|.!.^.h.e.x.f.h.9.8.0.q.h.x.n.z.6.a.v.D./..X-X:X>X%X!.t.w.a.a.j.v.v.A.Y.R.^.R.Z.C.S.M.Z.!.#X$X+XXX[.(.!.E.^./.K.C.J.R.R.",
"9.h.A.B.Y.P.L.D.f.v.j.i.r.h.u.4.y.h.n.m.u.k.M.D.Q.[.%X%X|.Q.G.u.s.B.M.B.C.G.U.T.I.R.E.H.S.A.D.S.J.).'._.`._._./.Q.~.~.P.C.J.W.L."
};
